PathFileType	4	(X/Y/Z)	C:/Users/opensim2020/Desktop/walking_exp_matlab/subject02_walking10_straight_04.trc	
DataRate	CameraRate	NumFrames	NumMarkers	Units	OrigDataRate	OrigDataStartFrame	OrigNumFrames	
100.00	100.00	4	43	mm	100.00	3052	260	
Frame#	Time	LFHD			RFHD			LBHD			RBHD			C7			T10			CLAV			STRN			RBAK			LSHO			LUPA			LELB			LFRM			LWRA			LWRB			LFIN			RSHO			RUPA			RELB			RFRM			RWRA			RWRB			RFIN			LASI			RASI			LPSI			RPSI			LTHI			LKNE			LTIB			LANK			LHEE			LTOE			RTHI			RKNE			RTIB			RANK			RHEE			RTOE			*39			*40			*41			*42			
		X1	Y1	Z1	X2	Y2	Z2	X3	Y3	Z3	X4	Y4	Z4	X5	Y5	Z5	X6	Y6	Z6	X7	Y7	Z7	X8	Y8	Z8	X9	Y9	Z9	X10	Y10	Z10	X11	Y11	Z11	X12	Y12	Z12	X13	Y13	Z13	X14	Y14	Z14	X15	Y15	Z15	X16	Y16	Z16	X17	Y17	Z17	X18	Y18	Z18	X19	Y19	Z19	X20	Y20	Z20	X21	Y21	Z21	X22	Y22	Z22	X23	Y23	Z23	X24	Y24	Z24	X25	Y25	Z25	X26	Y26	Z26	X27	Y27	Z27	X28	Y28	Z28	X29	Y29	Z29	X30	Y30	Z30	X31	Y31	Z31	X32	Y32	Z32	X33	Y33	Z33	X34	Y34	Z34	X35	Y35	Z35	X36	Y36	Z36	X37	Y37	Z37	X38	Y38	Z38	X39	Y39	Z39	X40	Y40	Z40	X41	Y41	Z41	X42	Y42	Z42	X43	Y43	Z43	

1	0.000	-1007.39679	800.62128	1759.57129	-1149.00623	788.64539	1731.17944	-993.95605	901.82611	1648.11218	-1134.75134	900.73975	1614.21936	-1045.98743	925.34564	1521.35608	-1041.71350	986.85693	1251.97974	-1039.80188	787.16040	1452.80957	-1040.16907	742.84760	1275.15454	-1098.19189	990.36536	1350.50623	-869.46356	835.50928	1508.48254	-777.79810	802.71906	1314.86902	-762.94446	760.96716	1177.25940	-774.80450	685.05164	1066.84412	-839.62500	585.99945	993.72504	-798.33716	614.64819	968.17719	-808.69708	563.13452	928.48090	-1234.51514	856.27698	1474.49402	-1311.71008	900.72485	1285.12781	-1336.99878	892.80725	1140.61145	-1361.22925	861.61182	1025.00415	-1348.48279	806.83643	900.03290	-1376.90393	855.54291	895.44470	-1383.23987	816.37305	834.12158	-900.77490	775.57715	980.30176	-1157.37817	759.00018	973.34399	-996.26520	977.96716	1030.13599	-1110.73010	976.59961	1029.33582	-870.80566	875.47321	670.99640	-909.69403	933.33289	475.26288	-916.39691	1019.30939	299.16626	-961.94617	1050.34094	78.58157	-1013.92316	1089.21680	52.96968	-949.56281	896.06342	38.31746	-1252.36194	785.59949	678.32330	-1227.35486	713.51624	482.15088	-1253.36890	688.98419	299.81046	-1241.35571	632.63287	110.88448	-1188.29529	642.84253	45.19946	-1251.52856	470.11926	102.36855	-1104.61438	913.78223	1781.97668	-3356.95752	2846.00049	1034.10645						 
2	0.010	-1008.99097	792.62170	1758.32031	-1150.74915	780.21893	1730.05518	-996.38776	893.29468	1646.73608	-1137.09570	892.45575	1613.21924	-1047.97021	917.01038	1520.06287	-1043.64722	978.38519	1250.66528	-1041.58240	778.87354	1451.64465	-1041.61731	734.40375	1274.02625	-1099.96594	981.95844	1349.08435	-871.32581	827.59723	1507.53687	-779.49994	795.28333	1313.91675	-764.41943	753.83112	1176.26196	-776.80554	677.04266	1065.86060	-841.73340	577.70032	993.99652	-800.69202	606.44922	967.86755	-811.07758	554.16779	928.63904	-1236.24072	848.09674	1473.02063	-1313.19238	892.80310	1283.53870	-1338.15466	885.28418	1138.98682	-1362.23621	854.43634	1023.23267	-1349.25195	800.02472	898.12671	-1377.99207	848.90527	893.82245	-1384.21667	809.84363	832.28339	-901.97882	767.93640	978.71301	-1158.52161	750.16888	972.06769	-998.55170	969.75256	1028.93127	-1113.05823	967.98138	1028.31201	-872.42487	869.54724	669.87732	-910.63446	929.18091	474.81772	-917.30157	1016.84747	299.55328	-962.30701	1049.99438	79.19341	-1014.40643	1088.84106	53.76189	-949.51752	895.94891	38.22341	-1253.64917	776.53906	676.90369	-1227.66431	703.99884	481.01251	-1253.54553	676.90155	299.28928	-1241.09973	617.09631	111.07822	-1188.40271	627.56744	45.52716	-1249.67505	454.41370	104.46716	-1106.60364	905.32343	1780.91028	-3356.81445	2846.05908	1034.08813						 
3	0.020	-1011.00031	783.91016	1757.21460	-1152.74280	771.73724	1728.86926	-998.26141	885.24274	1645.73633	-1139.24268	884.06952	1612.08472	-1050.11584	908.87476	1518.82214	-1045.69104	969.88196	1249.34351	-1043.58301	770.48584	1450.26526	-1043.25391	725.85486	1272.92834	-1102.02856	973.63879	1347.78137	-873.29553	819.50397	1506.49597	-781.10272	787.72168	1312.71716	-766.01166	746.70044	1174.97583	-778.86853	669.73022	1064.80652	-843.82623	569.86780	993.36169	-802.94299	598.81366	967.34406	-813.42908	546.13385	928.40814	-1238.52283	839.76575	1471.70520	-1314.67358	884.86505	1281.96008	-1339.50378	877.61090	1137.39819	-1363.23047	847.21320	1021.44812	-1349.98450	793.30035	896.12354	-1378.59839	841.91412	891.89740	-1384.85779	803.06042	830.14709	-903.34930	760.07544	977.13361	-1159.84485	741.30994	970.58289	-1000.92560	961.44897	1027.69092	-1115.46179	959.32928	1027.27441	-873.79559	864.32446	669.24365	-911.76074	924.75250	474.35373	-918.16583	1014.28522	300.01566	-962.65869	1049.60315	79.82501	-1014.83124	1088.58508	54.63700	-949.48615	895.83655	38.19318	-1254.76294	766.99286	675.55475	-1228.44250	693.76587	480.17374	-1253.66687	665.32166	298.61078	-1240.48364	604.20160	111.03957	-1187.53760	613.65833	45.18976	-1248.24854	441.06903	105.30266	-1108.64502	896.84003	1779.80505	-3360.40137	2845.19653	1034.10449						 
4	0.030	-1013.04138	775.80109	1755.98743	-1154.78601	763.20825	1727.63892	-1000.45221	876.97101	1644.56042	-1141.35754	875.64301	1610.90906	-1052.23511	900.44592	1517.50317	-1047.87878	961.28046	1248.02405	-1045.40515	762.01257	1449.21423	-1044.95142	717.26990	1271.84143	-1103.96887	964.95410	1346.25354	-875.22174	811.37030	1505.43396	-783.00403	780.27850	1311.52625	-767.86243	739.45001	1173.51843	-780.81213	662.19104	1063.72156	-846.13794	562.07178	993.13477	-805.32141	591.06708	966.29407	-815.73828	538.44708	927.75140	-1240.53210	831.22504	1470.02112	-1316.31213	876.79987	1280.38513	-1340.89392	869.80286	1135.81030	-1364.45105	839.72479	1019.75299	-1351.07837	786.17188	894.35938	-1379.89624	834.91193	890.28101	-1385.68481	796.25452	828.36969	-904.88550	752.19073	975.56915	-1161.25830	732.40405	969.43384	-1003.40082	953.07800	1026.53784	-1117.93555	950.56195	1026.20337	-875.26660	858.49921	668.49976	-912.82684	920.19208	473.95319	-919.05847	1011.56818	300.60861	-963.01013	1049.23901	80.64544	-1015.26117	1088.18774	55.69381	-949.43457	895.72638	38.16460	-1256.27539	756.65143	674.42615	-1229.04773	682.91498	479.56799	-1253.70691	654.13885	297.82904	-1239.62866	593.07159	110.40265	-1186.60254	602.28674	44.78360	-1247.05591	430.13132	104.74603	-1110.86951	888.33075	1778.76563	-3360.31372	2845.25098	1034.03137						 
